# xmcd
#
# Track frame offsets: 
#        150
#        19362
#        33336
#        51022
#        66375
#        83537
#        97256
#        116745
#        136270
#        149525
#        165388
#        179803
#
# Disc length: 2591 seconds
#
# Revision: 4
# Processed by: cddbd v1.5.2PL0 Copyright (c) Steve Scherf et al.
# Submitted via: ExactAudioCopy v1.3
#
DISCID=ad0a1d0c
DTITLE=Grupo Límite - De Corazón Al Corazón
DYEAR=1998
DGENRE=Norteño
TTITLE0=La Otra Parte Del Amor
TTITLE1=Vas A Extrañarme
TTITLE2=Adorable Ladrón
TTITLE3=Me Está Doliendo
TTITLE4=Junto A Ti
TTITLE5=Tenerte En Mi Vida
TTITLE6=Pasión
TTITLE7=Solamente Tú
TTITLE8=Todo Lo Perdí
TTITLE9=Cosas Del Corazón
TTITLE10=Ilusión De Amor
TTITLE11=Bésame
EXTD=
EXTT0=
EXTT1=
EXTT2=
EXTT3=
EXTT4=
EXTT5=
EXTT6=
EXTT7=
EXTT8=
EXTT9=
EXTT10=
EXTT11=
PLAYORDER=
